Coordinates
nRows=238
nColumns=2
inDegrees=yes
endheader
time	ankle_angle_r	
4.125	  9.407770	
4.15827	  9.345378	
4.19153	  9.445190	
4.2248	  9.414673	
4.25806	  9.376186	
4.29133	  9.498839	
4.3246	  9.399707	
4.35786	  9.338379	
4.39113	  9.452773	
4.4244	  9.422158	
4.45766	  9.406803	
4.49093	  9.422639	
4.52419	  9.421868	
4.55746	  9.398354	
4.59073	  9.415927	
4.62399	  9.336931	
4.65726	  9.375706	
4.69052	  9.346926	
4.72379	  9.353638	
4.75706	  9.399414	
4.79032	  9.384155	
4.82359	  9.362571	
4.85685	  9.384155	
4.89012	  9.381161	
4.92339	  9.353638	
4.95665	  9.408734	
4.98992	  9.405256	
5.02319	  9.368896	
5.05645	  9.414673	
5.08972	  9.389708	
5.12298	  9.389610	
5.15625	  9.409314	
5.18952	  9.394152	
5.22278	  9.348710	
5.25605	  9.368896	
5.28931	  9.399414	
5.32258	  9.364654	
5.35585	  9.408972	
5.38911	  9.393519	
5.42238	  9.374985	
5.45565	  9.394925	
5.48891	  9.421148	
5.52218	  9.357933	
5.55544	  9.377294	
5.58871	  9.410571	
5.62198	  9.345628	
5.65524	  9.399414	
5.68851	  9.365085	
5.72177	  9.345809	
5.75504	  9.387774	
5.78831	  9.365375	
5.82157	  9.350213	
5.85484	  9.411345	
5.8881	  9.338379	
5.92137	  9.353638	
5.95464	  9.445190	
5.9879	  9.411732	
6.02117	  9.371741	
6.05444	  9.399414	
6.0877	  9.368896	
6.12097	  9.424822	
6.15423	  9.404840	
6.1875	  9.412312	
6.22077	  9.366632	
6.25403	  9.412505	
6.2873	  9.373039	
6.32056	  9.382180	
6.35383	  9.401292	
6.3871	  9.357201	
6.42036	  9.396045	
6.45363	  9.475708	
6.4869	  9.371879	
6.52016	  9.355032	
6.55343	  9.459151	
6.58669	  9.399414	
6.61996	  9.370001	
6.65323	  9.429932	
6.68649	  9.384155	
6.71976	  9.401043	
6.75302	  9.459731	
6.78629	  9.460449	
6.81956	  9.431505	
6.85282	  9.445190	
6.88609	  9.460449	
6.91935	  9.490732	
6.95262	  9.429794	
6.98589	  9.384278	
7.01915	  9.460449	
7.05242	  9.414520	
7.08569	  9.429932	
7.11895	  9.399068	
7.15222	  9.445633	
7.18548	  9.429932	
7.21875	  9.446462	
7.25202	  9.461182	
7.28528	  9.415502	
7.31855	  9.475708	
7.35181	  9.444168	
7.38508	  9.487609	
7.41835	  9.431148	
7.45161	  9.474396	
7.48488	  9.459040	
7.51815	  9.446696	
7.55141	  9.521484	
7.58468	  9.387554	
7.61794	  9.477504	
7.65121	  9.475708	
7.68448	  9.420641	
7.71774	  9.438932	
7.75101	  9.493150	
7.78427	  9.480267	
7.81754	  9.445190	
7.85081	  9.404360	
7.88407	  9.366327	
7.91734	  9.429932	
7.9506	  9.404940	
7.98387	  9.457590	
8.01714	  9.475708	
8.0504	  9.442138	
8.08367	  9.405713	
8.11694	  9.439671	
8.1502	  9.424702	
8.18347	  9.365457	
8.21673	  9.472172	
8.25	  9.433565	
8.28327	  9.357368	
8.31653	  9.452796	
8.3498	  9.422519	
8.38306	  9.368896	
8.41633	  9.479824	
8.4496	  9.377323	
8.48286	  9.403724	
8.51613	  9.429932	
8.5494	  9.403917	
8.58266	  9.445190	
8.61593	  9.419370	
8.64919	  9.384155	
8.68246	  9.378676	
8.71573	  9.399414	
8.74899	  9.440099	
8.78226	  9.399414	
8.81552	  9.470431	
8.84879	  9.455076	
8.88206	  9.374367	
8.91532	  9.409106	
8.94859	  9.414673	
8.98185	  9.418411	
9.01512	  9.448735	
9.04839	  9.435885	
9.08165	  9.427040	
9.11492	  9.423785	
9.14819	  9.442419	
9.18145	  9.432510	
9.21472	  9.490967	
9.24798	  9.408139	
9.28125	  9.460449	
9.31452	  9.406141	
9.34778	  9.499402	
9.38105	  9.484046	
9.41431	  9.485174	
9.44758	  9.414673	
9.48085	  9.483756	
9.51411	  9.483660	
9.54738	  9.430383	
9.58065	  9.422431	
9.61391	  9.460449	
9.64718	  9.422367	
9.68044	  9.498757	
9.71371	  9.490451	
9.74698	  9.453175	
9.78024	  9.491869	
9.81351	  9.498048	
9.84677	  9.406399	
9.88004	  9.445190	
9.91331	  9.460449	
9.94657	  9.445190	
9.97984	  9.475708	
10.0131	  9.480220	
10.0464	  9.447639	
10.0796	  9.475708	
10.1129	  9.459910	
10.1462	  9.414673	
10.1794	  9.445190	
10.2127	  9.442685	
10.246	  9.359463	
10.2792	  9.399414	
10.3125	  9.399414	
10.3458	  9.378621	
10.379	  9.403797	
10.4123	  9.374238	
10.4456	  9.435176	
10.4788	  9.435080	
10.5121	  9.424881	
10.5454	  9.424977	
10.5786	  9.455591	
10.6119	  9.394653	
10.6452	  9.373561	
10.6784	  9.460449	
10.7117	  9.393097	
10.745	  9.368896	
10.7782	  9.418950	
10.8115	  9.423035	
10.8448	  9.460449	
10.878	  9.486979	
10.9113	  9.410782	
10.9446	  9.403208	
10.9778	  9.464147	
11.0111	  9.448792	
11.0444	  9.372400	
11.0776	  9.414673	
11.1109	  9.362275	
11.1442	  9.436359	
11.1774	  9.426814	
11.2107	  9.344420	
11.244	  9.402338	
11.2772	  9.399414	
11.3105	  9.353638	
11.3437	  9.386789	
11.377	  9.396876	
11.4103	  9.358519	
11.4435	  9.404102	
11.4768	  9.397167	
11.5101	  9.399414	
11.5433	  9.388263	
11.5766	  9.399414	
11.6099	  9.353638	
11.6431	  9.414673	
11.6764	  9.413006	
11.7097	  9.382585	
11.7429	  9.399414	
11.7762	  9.400791	
11.8095	  9.354918	
11.8427	  9.413489	
11.876	  9.372157	
11.9093	  9.354628	
11.9425	  9.384155	
11.9758	  9.429134	
12.0091	  9.368196	
